<svg width="62" height="62" viewBox="0 0 62 62" fill="none" xmlns="http://www.w3.org/2000/svg">
<path d="M20.15 35.65V24.8" stroke="#1766A4" stroke-width="3" stroke-linecap="round" stroke-linejoin="round"/>
<path d="M20.5375 46.5C23.3197 46.5 25.5751 44.2446 25.5751 41.4625C25.5751 38.6804 23.3197 36.425 20.5375 36.425C17.7554 36.425 15.5 38.6804 15.5 41.4625C15.5 44.2446 17.7554 46.5 20.5375 46.5Z" stroke="#1766A4" stroke-width="3" stroke-linecap="round" stroke-linejoin="round"/>
<path d="M20.15 24.8C22.7181 24.8 24.7999 22.7181 24.7999 20.15C24.7999 17.5818 22.7181 15.5 20.15 15.5C17.5818 15.5 15.5 17.5818 15.5 20.15C15.5 22.7181 17.5818 24.8 20.15 24.8Z" stroke="#1766A4" stroke-width="3" stroke-linecap="round" stroke-linejoin="round"/>
<path d="M41.85 24.8C44.4182 24.8 46.5 22.7181 46.5 20.15C46.5 17.5818 44.4182 15.5 41.85 15.5C39.2819 15.5 37.2001 17.5818 37.2001 20.15C37.2001 22.7181 39.2819 24.8 41.85 24.8Z" stroke="#1766A4" stroke-width="3" stroke-linecap="round" stroke-linejoin="round"/>
<path d="M20.3567 35.65C21.0542 32.9375 23.5342 30.9225 26.4533 30.9484L31.775 30.9741C35.8308 31 39.2925 28.3908 40.5584 24.7483" stroke="#1766A4" stroke-width="3" stroke-linecap="round" stroke-linejoin="round"/>
<path d="M23.25 5.1665H38.75C51.6667 5.1665 56.8333 10.3332 56.8333 23.2498V38.7498C56.8333 51.6665 51.6667 56.8332 38.75 56.8332H23.25C10.3333 56.8332 5.16666 51.6665 5.16666 38.7498V23.2498C5.16666 10.3332 10.3333 5.1665 23.25 5.1665Z" stroke="#1766A4" stroke-width="3" stroke-linecap="round" stroke-linejoin="round"/>
</svg>
