<svg width="65" height="59" viewBox="0 0 65 59" fill="none" xmlns="http://www.w3.org/2000/svg">
<path d="M48.75 39.3582C50.2395 39.3582 51.4583 40.4644 51.4583 41.8165V44.2502C51.4583 49.6586 47.3958 54.0836 40.625 54.0836H24.375C17.6041 54.0836 13.5416 49.6586 13.5416 44.2502V41.8165C13.5416 40.4644 14.7604 39.3582 16.25 39.3582H48.75Z" fill="#1766A4"/>
<path d="M51.4583 14.7501V33.1876C51.4583 34.5397 50.2395 35.6459 48.75 35.6459H16.25C14.7604 35.6459 13.5416 34.5397 13.5416 33.1876V14.7501C13.5416 9.34175 17.6041 4.91675 24.375 4.91675H40.625C47.3958 4.91675 51.4583 9.34175 51.4583 14.7501Z" fill="#1766A4"/>
<path d="M8.125 51.0103C7.01458 51.0103 6.09375 50.1745 6.09375 49.1666V9.83325C6.09375 8.82534 7.01458 7.9895 8.125 7.9895C9.23542 7.9895 10.1562 8.82534 10.1562 9.83325V49.1666C10.1562 50.1745 9.23542 51.0103 8.125 51.0103Z" fill="#1766A4"/>
<path d="M56.875 51.0103C55.7646 51.0103 54.8438 50.1745 54.8438 49.1666V9.83325C54.8438 8.82534 55.7646 7.9895 56.875 7.9895C57.9854 7.9895 58.9062 8.82534 58.9062 9.83325V49.1666C58.9062 50.1745 57.9854 51.0103 56.875 51.0103Z" fill="#1766A4"/>
</svg>
